<svg width="544" height="362" viewBox="0 0 544 362" fill="none" xmlns="http://www.w3.org/2000/svg">
<path d="M541.003 336.4C540.944 336.549 540.824 336.669 540.67 336.735C540.515 336.801 540.339 336.808 540.18 336.753L31.5334 159.8C31.3747 159.745 31.246 159.632 31.1757 159.488C31.1053 159.344 31.099 159.18 31.1581 159.031C31.2172 158.883 31.3369 158.762 31.491 158.696C31.645 158.63 31.8208 158.624 31.9798 158.679L540.627 335.631C540.785 335.687 540.914 335.799 540.985 335.943C541.055 336.087 541.062 336.252 541.003 336.4Z" fill="#F2F2F2"/>
<path d="M270.051 0H148.848C139.34 0.0100579 130.225 3.54563 123.502 9.83105C116.779 16.1165 112.997 24.6384 112.987 33.5274V43.7697C112.738 43.7057 112.477 43.6966 112.224 43.7432C111.97 43.7898 111.732 43.8907 111.528 44.0381C111.324 44.1855 111.159 44.3752 111.047 44.5924C110.934 44.8095 110.877 45.0481 110.88 45.2893V53.1657C110.877 53.4069 110.934 53.6455 111.047 53.8626C111.159 54.0798 111.324 54.2695 111.528 54.4169C111.732 54.5642 111.97 54.6652 112.224 54.7118C112.477 54.7584 112.738 54.7493 112.987 54.6853V66.6113C112.738 66.5472 112.477 66.5381 112.223 66.5847C111.97 66.6313 111.732 66.7322 111.528 66.8796C111.324 67.027 111.159 67.2167 111.046 67.4339C110.934 67.651 110.877 67.8896 110.88 68.1308V87.8218C110.877 88.063 110.934 88.3016 111.046 88.5188C111.159 88.7359 111.324 88.9257 111.528 89.0731C111.732 89.2204 111.97 89.3214 112.223 89.368C112.477 89.4145 112.738 89.4054 112.987 89.3414V96.5416C112.738 96.4775 112.477 96.4685 112.223 96.515C111.97 96.5616 111.732 96.6625 111.528 96.8099C111.324 96.9573 111.159 97.1471 111.046 97.3642C110.934 97.5814 110.877 97.82 110.88 98.0612V117.752C110.877 117.993 110.934 118.232 111.046 118.449C111.159 118.666 111.324 118.856 111.528 119.003C111.732 119.151 111.97 119.252 112.223 119.298C112.477 119.345 112.738 119.336 112.987 119.272V327.211C112.997 336.1 116.779 344.622 123.502 350.908C130.225 357.193 139.34 360.729 148.848 360.739H270.051C279.559 360.729 288.674 357.193 295.397 350.908C302.12 344.622 305.901 336.1 305.912 327.211V33.5274C305.901 24.6384 302.12 16.1165 295.397 9.83105C288.674 3.54563 279.559 0.0100579 270.051 0ZM298.33 327.211C298.322 334.221 295.339 340.941 290.038 345.898C284.736 350.854 277.548 353.642 270.051 353.65H148.848C141.351 353.642 134.163 350.854 128.861 345.898C123.56 340.941 120.577 334.221 120.569 327.211V33.5274C120.577 26.5178 123.56 19.7977 128.861 14.8412C134.163 9.88475 141.351 7.09671 148.848 7.08875H270.051C277.548 7.0967 284.736 9.88474 290.038 14.8412C295.339 19.7977 298.322 26.5178 298.33 33.5274V327.211Z" fill="#3F3D56"/>
<path d="M270.051 357.588H148.848C140.234 357.579 131.975 354.376 125.884 348.681C119.793 342.986 116.366 335.265 116.357 327.211V33.5273C116.366 25.4737 119.793 17.7526 125.884 12.0578C131.975 6.363 140.234 3.15965 148.848 3.15051H270.051C278.665 3.15965 286.924 6.36299 293.015 12.0578C299.106 17.7525 302.533 25.4737 302.542 33.5273V327.211C302.533 335.265 299.106 342.986 293.015 348.681C286.924 354.376 278.665 357.579 270.051 357.588Z" fill="#E6E6E6"/>
<path d="M273.046 352.862H145.853C140.043 352.856 134.473 350.696 130.365 346.855C126.256 343.014 123.945 337.806 123.939 332.375V28.3642C123.945 22.9324 126.256 17.7248 130.365 13.8839C134.473 10.043 140.043 7.88252 145.853 7.87636H162.44C163.401 7.87739 164.321 8.23449 165 8.86933C165.679 9.50416 166.061 10.3649 166.062 11.2627C166.065 13.9149 167.194 16.4576 169.2 18.333C171.206 20.2084 173.925 21.2633 176.762 21.2662H240.452C243.289 21.2633 246.008 20.2084 248.014 18.333C250.02 16.4576 251.149 13.9149 251.152 11.2627C251.153 10.3649 251.535 9.50415 252.214 8.86932C252.893 8.23448 253.813 7.87737 254.774 7.87634H273.046C278.856 7.8825 284.426 10.043 288.534 13.8839C292.643 17.7248 294.954 22.9324 294.96 28.3642V332.375C294.954 337.806 292.643 343.014 288.534 346.855C284.426 350.696 278.856 352.856 273.046 352.862Z" fill="white"/>
<path d="M214.926 14.7682H199.761C199.314 14.7682 198.886 14.6023 198.57 14.3069C198.254 14.0114 198.076 13.6107 198.076 13.193C198.076 12.7752 198.254 12.3745 198.57 12.0791C198.886 11.7836 199.314 11.6177 199.761 11.6177H214.926C215.372 11.6177 215.801 11.7836 216.117 12.0791C216.433 12.3745 216.61 12.7752 216.61 13.193C216.61 13.6107 216.433 14.0114 216.117 14.3069C215.801 14.6023 215.372 14.7682 214.926 14.7682Z" fill="white"/>
<path d="M225.456 14.3745C225.922 14.3745 226.299 14.0218 226.299 13.5868C226.299 13.1518 225.922 12.7992 225.456 12.7992C224.991 12.7992 224.614 13.1518 224.614 13.5868C224.614 14.0218 224.991 14.3745 225.456 14.3745Z" fill="white"/>
<path d="M299.058 69.4082H119.674V71.2032H299.058V69.4082Z" fill="#E6E6E6"/>
<path d="M299.058 105.309H119.674V107.104H299.058V105.309Z" fill="#E6E6E6"/>
<path d="M299.058 179.504H119.674V181.299H299.058V179.504Z" fill="#E6E6E6"/>
<path d="M299.058 253.699H119.674V255.494H299.058V253.699Z" fill="#E6E6E6"/>
<path d="M299.058 311.739H119.674V313.534H299.058V311.739Z" fill="#E6E6E6"/>
<path d="M249.947 70.3058H248.027V180.402H249.947V70.3058Z" fill="#E6E6E6"/>
<path d="M160.145 180.37H158.225V312.636H160.145V180.37Z" fill="#E6E6E6"/>
<path d="M294.96 216.651H159.185V218.446H294.96V216.651Z" fill="#E6E6E6"/>
<path d="M250.153 312.636H248.233V352.862H250.153V312.636Z" fill="#E6E6E6"/>
<path d="M248.667 143.142H123.619V144.937H248.667V143.142Z" fill="#E6E6E6"/>
<path d="M149.734 6.74217L147.962 7.43518L176.26 70.6522L178.031 69.9592L149.734 6.74217Z" fill="#E6E6E6"/>
<path d="M236.885 21.2661H234.965V70.3057H236.885V21.2661Z" fill="#E6E6E6"/>
<path d="M286.394 97.5306C286.394 113.614 259.796 151.092 252.023 161.701C251.788 162.022 251.474 162.284 251.106 162.466C250.739 162.647 250.329 162.742 249.914 162.742C249.498 162.742 249.089 162.647 248.721 162.466C248.354 162.284 248.039 162.022 247.805 161.701C240.032 151.092 213.434 113.614 213.434 97.5306C213.434 88.4852 217.277 79.8102 224.118 73.4142C230.96 67.0181 240.239 63.4248 249.914 63.4248C259.589 63.4248 268.868 67.0181 275.709 73.4142C282.55 79.8102 286.394 88.4852 286.394 97.5306Z" fill="#004E98"/>
<path d="M249.914 112.489C260.164 112.489 268.474 104.721 268.474 95.1372C268.474 85.5539 260.164 77.7852 249.914 77.7852C239.663 77.7852 231.354 85.5539 231.354 95.1372C231.354 104.721 239.663 112.489 249.914 112.489Z" fill="white"/>
<path d="M248.698 180.918L178.409 312.214L180.126 313.018L250.415 181.721L248.698 180.918Z" fill="#E6E6E6"/>
<path d="M349.926 209.798C350.754 210.215 351.671 210.457 352.61 210.506C353.549 210.556 354.489 210.412 355.363 210.086C356.236 209.759 357.023 209.257 357.666 208.616C358.31 207.974 358.796 207.209 359.089 206.373L381.955 206.003L375.242 196.834L354.557 198.591C353.022 198.224 351.397 198.396 349.989 199.074C348.58 199.753 347.487 200.89 346.917 202.272C346.346 203.653 346.337 205.182 346.891 206.57C347.446 207.957 348.526 209.106 349.926 209.798H349.926Z" fill="#FFB8B8"/>
<path d="M363.653 209.532C363.299 209.532 362.948 209.464 362.622 209.334C362.296 209.204 362.002 209.014 361.757 208.774C361.512 208.535 361.321 208.252 361.196 207.942C361.071 207.631 361.015 207.301 361.031 206.97L361.493 197.167C361.518 196.583 361.766 196.027 362.192 195.6C362.618 195.172 363.194 194.902 363.815 194.838L390.306 191.997L389.418 208.333L363.783 209.528C363.739 209.53 363.696 209.532 363.653 209.532Z" fill="#004E98"/>
<path d="M395.915 343.903L388.457 346.18L375.512 320.368L386.52 317.007L395.915 343.903Z" fill="#FFB8B8"/>
<path d="M400.179 350.081L376.13 357.425L376.031 357.14C375.629 355.991 375.474 354.779 375.573 353.574C375.672 352.368 376.025 351.193 376.61 350.115C377.195 349.037 378.002 348.077 378.984 347.291C379.966 346.504 381.104 345.906 382.334 345.531L382.334 345.53L397.023 341.045L400.179 350.081Z" fill="#2F2E41"/>
<path d="M417.884 354.698L410.038 354.697L406.305 326.403L417.885 326.403L417.884 354.698Z" fill="#FFB8B8"/>
<path d="M419.885 361.809L394.586 361.808V361.509C394.586 360.3 394.84 359.102 395.335 357.985C395.83 356.868 396.555 355.854 397.47 354.999C398.384 354.144 399.47 353.466 400.665 353.003C401.859 352.54 403.14 352.302 404.433 352.302H404.434L419.886 352.303L419.885 361.809Z" fill="#2F2E41"/>
<path d="M405.967 347.811C405.325 347.81 404.706 347.59 404.227 347.192C403.747 346.794 403.44 346.245 403.363 345.65L393.247 266.581L378.439 288.805L395.814 330.317C396.05 330.89 396.049 331.526 395.81 332.099C395.571 332.672 395.113 333.141 394.524 333.415L379.784 340.158C379.448 340.312 379.08 340.396 378.706 340.406C378.332 340.416 377.959 340.351 377.614 340.216C377.269 340.08 376.959 339.877 376.704 339.619C376.45 339.362 376.258 339.057 376.14 338.725L359.806 292.587C358.576 289.115 358.415 285.389 359.342 281.836L369.904 241.315L370.027 241.252L393.835 229.06L393.971 229.106L422.008 238.674L419.074 290.621L421.206 344.537C421.235 345.177 420.993 345.803 420.533 346.278C420.072 346.753 419.43 347.04 418.746 347.076L406.131 347.807C406.076 347.809 406.021 347.811 405.967 347.811Z" fill="#2F2E41"/>
<path d="M390.523 256.712C386.334 256.712 382.805 255.597 380.597 252.761L380.526 252.67L381.954 238.653L369.247 245.248C368.984 245.385 368.682 245.442 368.382 245.414C368.082 245.385 367.799 245.27 367.571 245.086C367.343 244.902 367.181 244.657 367.106 244.384C367.032 244.111 367.049 243.823 367.155 243.56L383.003 204.213L393.466 172.161C393.985 169.596 395.325 167.239 397.309 165.401C399.293 163.564 401.827 162.333 404.576 161.872C413.897 160.271 419.449 163.212 425.86 169.737C427.41 171.325 428.552 173.223 429.198 175.286C429.845 177.349 429.978 179.523 429.589 181.642L423.524 214.049L425.306 243.105C425.442 243.606 425.405 244.134 425.201 244.615C424.997 245.095 424.635 245.502 424.168 245.779C419.212 248.729 404.013 256.711 390.523 256.712Z" fill="#004E98"/>
<path d="M411.73 157.019C420.411 157.019 427.449 150.439 427.449 142.323C427.449 134.206 420.411 127.627 411.73 127.627C403.048 127.627 396.011 134.206 396.011 142.323C396.011 150.439 403.048 157.019 411.73 157.019Z" fill="#FFB8B8"/>
<path d="M415.824 247.08C416.68 246.713 417.438 246.176 418.047 245.505C418.657 244.835 419.101 244.048 419.349 243.199C419.598 242.351 419.644 241.462 419.486 240.595C419.327 239.728 418.967 238.904 418.43 238.181L431.911 220.909L420.04 220.383L409.058 236.865C407.819 237.788 406.985 239.104 406.714 240.563C406.443 242.022 406.754 243.523 407.588 244.782C408.422 246.041 409.721 246.971 411.239 247.394C412.757 247.818 414.389 247.706 415.824 247.08Z" fill="#FFB8B8"/>
<path d="M423.125 237.333C422.468 237.421 421.799 237.272 421.253 236.917L412.329 231.098C411.792 230.751 411.414 230.229 411.268 229.634C411.123 229.04 411.22 228.416 411.542 227.885L427.431 201.455L411.45 183.471C410.611 182.527 409.992 181.43 409.631 180.249C409.27 179.068 409.176 177.831 409.355 176.614C409.534 175.398 409.982 174.23 410.67 173.184C411.358 172.138 412.271 171.238 413.352 170.54C414.433 169.843 415.657 169.363 416.946 169.132C418.236 168.901 419.563 168.923 420.843 169.197C422.123 169.472 423.328 169.992 424.381 170.726C425.434 171.46 426.312 172.39 426.96 173.458L444.605 202.575C444.73 202.782 444.795 203.016 444.795 203.254C444.795 203.492 444.729 203.726 444.604 203.933L425.036 236.117C424.855 236.413 424.61 236.671 424.317 236.875C424.024 237.078 423.689 237.222 423.333 237.297C423.264 237.312 423.195 237.324 423.125 237.333Z" fill="#004E98"/>
<path d="M405.448 140.447C403.892 139.361 401.738 139.53 399.895 138.961C398.797 138.623 397.814 138.02 397.045 137.214C396.275 136.408 395.745 135.427 395.509 134.369C395.273 133.311 395.338 132.214 395.698 131.187C396.059 130.16 396.702 129.24 397.562 128.519C399.553 126.851 402.386 126.473 405.039 126.168C408.674 125.749 412.344 125.331 415.989 125.663C419.634 125.996 423.303 127.147 425.968 129.496C428.905 132.086 430.352 135.942 430.362 139.717C430.259 143.51 429.146 147.219 427.122 150.508C426.496 151.757 425.553 152.845 424.375 153.675C423.149 154.432 421.421 154.63 420.24 153.813C419.219 153.107 418.846 151.87 418.385 150.763C417.924 149.657 417.137 148.479 415.88 148.309C414.262 148.089 413.027 149.627 411.483 150.131C409.324 150.835 406.925 149.277 406.044 147.304C405.163 145.331 405.395 143.098 405.642 140.972" fill="#2F2E41"/>
<path d="M544 361.402C544 361.56 543.932 361.712 543.812 361.824C543.692 361.936 543.53 362 543.36 362H0.64C0.470261 362 0.307474 361.937 0.187451 361.825C0.0674279 361.713 0 361.56 0 361.402C0 361.243 0.0674279 361.091 0.187451 360.979C0.307474 360.866 0.470261 360.803 0.64 360.803H543.36C543.53 360.804 543.692 360.867 543.812 360.979C543.932 361.091 544 361.243 544 361.402Z" fill="#CCCCCC"/>
<path d="M249.914 187.881C254.509 187.881 258.234 184.398 258.234 180.102C258.234 175.807 254.509 172.324 249.914 172.324C245.319 172.324 241.594 175.807 241.594 180.102C241.594 184.398 245.319 187.881 249.914 187.881Z" fill="#004E98"/>
<path d="M367.046 95.0541C363.571 99.3836 348.315 104.45 343.93 105.838C343.798 105.88 343.657 105.891 343.519 105.87C343.38 105.85 343.25 105.798 343.138 105.719C343.026 105.641 342.936 105.538 342.877 105.42C342.817 105.302 342.789 105.172 342.795 105.041C342.995 100.717 343.932 85.6061 347.406 81.2766C349.361 78.8417 352.269 77.2323 355.493 76.8024C358.716 76.3726 361.99 77.1575 364.595 78.9845C367.199 80.8115 368.92 83.531 369.38 86.5446C369.84 89.5582 369 92.6192 367.046 95.0541Z" fill="#FF6700"/>
<path d="M357.743 93.3608C361.193 93.3608 363.989 90.7463 363.989 87.5212C363.989 84.296 361.193 81.6815 357.743 81.6815C354.294 81.6815 351.497 84.296 351.497 87.5212C351.497 90.7463 354.294 93.3608 357.743 93.3608Z" fill="white"/>
<path d="M339.387 113.01C340.934 113.01 342.187 111.838 342.187 110.393C342.187 108.947 340.934 107.775 339.387 107.775C337.841 107.775 336.587 108.947 336.587 110.393C336.587 111.838 337.841 113.01 339.387 113.01Z" fill="#FF6700"/>
<path d="M62.5133 213.814C67.6264 221.117 67.463 245.526 67.306 252.504C67.3015 252.714 67.242 252.921 67.1328 253.105C67.0235 253.29 66.8678 253.447 66.6791 253.562C66.4904 253.678 66.2745 253.748 66.0499 253.768C65.8254 253.788 65.5991 253.756 65.3907 253.676C58.4884 251.018 34.4962 241.391 29.383 234.087C27.9572 232.053 26.974 229.777 26.4896 227.388C26.0052 224.999 26.029 222.544 26.5598 220.163C27.0907 217.782 28.118 215.523 29.5831 213.514C31.0483 211.505 32.9225 209.785 35.0988 208.453C37.2751 207.122 39.7107 206.204 42.2664 205.753C44.8222 205.301 47.4481 205.325 49.994 205.823C52.5399 206.321 54.9559 207.283 57.104 208.654C59.2522 210.025 61.0903 211.778 62.5133 213.814Z" fill="#FF6700"/>
<path d="M45.1873 232.281C50.7503 232.281 55.2599 228.064 55.2599 222.864C55.2599 217.663 50.7503 213.446 45.1873 213.446C39.6243 213.446 35.1146 217.663 35.1146 222.864C35.1146 228.064 39.6243 232.281 45.1873 232.281Z" fill="white"/>
<path d="M72.1982 265.667C74.6919 265.667 76.7135 263.777 76.7135 261.445C76.7135 259.114 74.6919 257.224 72.1982 257.224C69.7044 257.224 67.6829 259.114 67.6829 261.445C67.6829 263.777 69.7044 265.667 72.1982 265.667Z" fill="#FF6700"/>
</svg>
